<svg xmlns="http://www.w3.org/2000/svg" viewBox="0 0 43.07 43.07"><defs><style>.cls-1{fill:#231f20;opacity:0.75;}.cls-2,.cls-3{fill:none;stroke:#fff;stroke-miterlimit:10;stroke-width:2.03px;}.cls-3{stroke-linecap:round;}</style></defs><g id="Layer_2" data-name="Layer 2"><g id="Layer_1-2" data-name="Layer 1"><g id="duplicate"><circle id="e" class="cls-1" cx="21.54" cy="21.54" r="21.54"/><g id="copy"><path class="cls-2" d="M33.68,34.34l-17,.24a.7.7,0,0,1-.7-.7l1.2-16.53a.7.7,0,0,1,.7-.7L35,16.26a.42.42,0,0,1,.42.42L34.1,33.92A.41.41,0,0,1,33.68,34.34Z"/><path class="cls-3" d="M13.41,27.5H9.94a.69.69,0,0,1-.7-.69l.7.69a.69.69,0,0,1-.7-.69L10,10a.69.69,0,0,1,.69-.7l17.49.31a.7.7,0,0,1,.7.7"/><path class="cls-3" d="M28.66,13.17l.19-3"/></g></g></g></g></svg>