<svg xmlns="http://www.w3.org/2000/svg" viewBox="0 0 43.07 43.07"><defs><style>.cls-1{fill:#231f20;opacity:0.75;}.cls-2,.cls-3,.cls-5{fill:none;}.cls-2,.cls-3,.cls-4,.cls-5,.cls-6,.cls-8{stroke:#fff;stroke-linecap:round;stroke-linejoin:round;}.cls-2{stroke-width:2.27px;}.cls-3{stroke-width:0.7px;}.cls-4,.cls-6,.cls-7,.cls-8{fill:#fff;}.cls-4{stroke-width:0.17px;}.cls-5{stroke-width:0.35px;}.cls-6{stroke-width:0.12px;}.cls-8{stroke-width:0.18px;}</style></defs><g id="Layer_2" data-name="Layer 2"><g id="Layer_1-2" data-name="Layer 1"><g id="edit"><circle id="e" class="cls-1" cx="21.54" cy="21.54" r="21.54"/><g id="pen-paper"><polyline class="cls-2" points="32.05 22.7 31.75 32.89 10.05 32.9 9.69 32.9 10.04 13.32 18.88 13.32 10.04 13.32 9.69 32.9 31.39 32.89"/><g id="pen"><path class="cls-3" d="M20.49,15.43H33.85a1.07,1.07,0,0,1,1.07,1.07v1.59a1.07,1.07,0,0,1-1.07,1.07h-15a1.05,1.05,0,0,1-1.05-1.05v0A2.68,2.68,0,0,1,20.49,15.43Z" transform="translate(-4.72 22.58) rotate(-42.91)"/><polygon class="cls-4" points="20.56 23.35 19.18 24.63 18.94 23.45 19.86 22.6 20.56 23.35"/><path class="cls-5" d="M20.61,23.35l-.7-.75a.43.43,0,0,1,0-.62l.34-.73L21.9,23l-.68.36A.44.44,0,0,1,20.61,23.35Z"/><path class="cls-6" d="M33.4,9.17h.66a.78.78,0,0,1,.78.78v1.78a0,0,0,0,1,0,0H32.62a0,0,0,0,1,0,0V9.94a.78.78,0,0,1,.78-.78Z" transform="translate(18.42 -21.37) rotate(47.09)"/><path class="cls-7" d="M22.17,22.21c1.41-.27,7.58-6.7,7.58-6.7"/><path class="cls-7" d="M22.15,22.1a7.69,7.69,0,0,0,2-1.4c.64-.55,1.26-1.12,1.88-1.71,1.22-1.16,2.41-2.36,3.58-3.58a.15.15,0,0,1,.21,0,.15.15,0,0,1,0,.21h0c-1.18,1.22-2.38,2.41-3.62,3.57-.62.58-1.25,1.15-1.9,1.7a7.78,7.78,0,0,1-2.14,1.43.1.1,0,0,1-.13-.06.1.1,0,0,1,.06-.13Z"/><path class="cls-8" d="M31.69,11.06c0,.47.72,1.46,1.28,1.37"/></g></g></g></g></g></svg>