<svg xmlns="http://www.w3.org/2000/svg" viewBox="0 0 42.12 42.12"><defs><style>.cls-1{fill:none;stroke-width:8.68px;}.cls-1,.cls-2{stroke:#231f20;stroke-linecap:square;stroke-linejoin:round;}.cls-2{fill:#231f20;stroke-width:9px;}</style></defs><g id="Layer_2" data-name="Layer 2"><g id="Layer_1-2" data-name="Layer 1"><g id="settings"><polyline class="cls-1" points="25.41 36.79 24.37 33.01 23.21 28.84"/><polyline class="cls-1" points="19.15 14.12 18.01 10 16.72 5.34"/><polyline class="cls-1" points="16.72 5.34 18.01 10 19.15 14.12"/><polyline class="cls-1" points="23.21 28.84 24.37 33.01 25.41 36.79"/><line class="cls-1" x1="5.34" y1="25.41" x2="10.58" y2="23.97"/><line class="cls-1" x1="36.78" y1="16.72" x2="31.54" y2="18.17"/><line class="cls-1" x1="36.78" y1="16.72" x2="31.54" y2="18.17"/><line class="cls-1" x1="29.11" y1="6.87" x2="26.42" y2="11.61"/><line class="cls-1" x1="29.11" y1="6.87" x2="26.42" y2="11.61"/><line class="cls-1" x1="15.7" y1="30.53" x2="13.01" y2="35.25"/><line class="cls-1" x1="6.87" y1="13.02" x2="11.6" y2="15.71"/><line class="cls-1" x1="30.52" y1="26.43" x2="35.25" y2="29.1"/><line class="cls-1" x1="35.25" y1="29.1" x2="30.52" y2="26.43"/><line class="cls-1" x1="11.6" y1="15.71" x2="6.87" y2="13.02"/><path class="cls-2" d="M32.71,18.32c0-.15-.08-.3-.13-.44A11.93,11.93,0,0,0,18,10h0A11.92,11.92,0,0,0,9.59,24.24c0,.15.07.29.11.44A11.95,11.95,0,0,0,24.37,33h0a11.93,11.93,0,0,0,8.33-14.69ZM23.23,28.84h0a7.63,7.63,0,0,1-4.06-14.72h0a7.64,7.64,0,1,1,4.07,14.72Z"/></g></g></g></svg>